<?xml version="1.0" encoding="UTF-8"?>
<svg width="89px" height="24px" viewBox="0 0 89 24" version="1.1" xmlns="http://www.w3.org/2000/svg" xmlns:xlink="http://www.w3.org/1999/xlink">
    <!-- Generator: Sketch 56.2 (81672) - https://sketch.com -->
    <title>logo-easie</title>
    <desc>Created with Sketch.</desc>
    <defs>
        <path d="M7.97543811,0.824773414 L3.01489989,3.74772205 C1.14928095,4.84703323 0,6.87867069 0,9.07726888 L0,9.07726888 L0,14.9231662 C0,17.1217885 1.14928095,19.1534018 3.01489989,20.252713 L3.01489989,20.252713 L7.60944241,22.96 C7.86039397,19.9829124 8.66847363,14.4916979 11.262437,11.6170393 L11.262437,11.6170393 C11.262437,11.6170393 8.50687191,12.2521329 5.12270829,17.4114079 L5.12270829,17.4114079 C5.12270829,17.4114079 3.01272121,10.9929184 11.1436986,10.3430816 L11.1436986,10.3430816 C11.1436986,10.3430816 8.47587298,7.82230816 3.67748116,10.3849426 L3.67748116,10.3849426 C3.67748116,10.3849426 7.91685038,3.79115408 11.8283983,9.61604834 L11.8283983,9.61604834 C11.8283983,9.61604834 12.0731927,5.44681571 15.7011324,5.8876858 L15.7011324,5.8876858 C15.7011324,5.8876858 13.8721249,7.36459215 13.2990355,9.40045921 L13.2990355,9.40045921 C13.2990355,9.40045921 17.3891884,6.46566767 19.9067557,12.4047372 L19.9067557,12.4047372 C19.9067557,12.4047372 16.9047147,10.0764713 14.3371087,10.7099456 L14.3371087,10.7099456 L14.6076211,10.79229 L14.2503875,10.8537039 C14.2503875,10.8537039 14.5389688,11.0520363 14.5668891,11.1047251 L14.5668891,11.1047251 C14.5948095,11.1574381 15.8814661,11.42371 15.8814661,11.42371 L15.8814661,11.42371 C15.8814661,11.42371 18.5206846,12.8427069 18.6693089,16.529861 L18.6693089,16.529861 C18.3862217,16.010997 17.1624155,13.8850997 15.7193907,13.1153112 L15.7193907,13.1153112 C15.7193907,13.1153112 16.5962174,16.835577 13.2651712,20.4785015 L13.2651712,20.4785015 C13.2651712,20.4785015 15.1454015,14.6847372 12.3334273,11.7071662 L12.3334273,11.7071662 C12.3334273,11.7071662 9.31561464,15.1043625 9.76262433,23.8711541 L9.76262433,23.8711541 C11.1915587,24.174284 12.703733,23.942574 14.0052616,23.1756858 L14.0052616,23.1756858 L18.9657761,20.252713 C20.831395,19.1534018 21.980676,17.1217885 21.980676,14.9231662 L21.980676,14.9231662 L21.980676,9.07726888 C21.980676,6.87867069 20.831395,4.84703323 18.9657761,3.74772205 L18.9657761,3.74772205 L14.0052616,0.824773414 C13.0724284,0.275117825 12.031395,0.000290030211 10.990338,0.000290030211 L10.990338,0.000290030211 C9.94930463,0.000290030211 8.90824758,0.275117825 7.97543811,0.824773414 L7.97543811,0.824773414 Z M18.6754917,16.6276012 C18.6740324,16.5947069 18.6714595,16.5623927 18.6693089,16.529861 L18.6693089,16.529861 C18.7348235,16.6038912 18.7693089,16.6451964 18.7693089,16.6451964 L18.7693089,16.6451964 L18.6754917,16.6276012 Z" id="path-1"></path>
        <linearGradient x1="0%" y1="49.999993%" x2="100.000029%" y2="49.999993%" id="linearGradient-3">
            <stop stop-color="#23F2D1" offset="0%"></stop>
            <stop stop-color="#F7F0DD" offset="100%"></stop>
        </linearGradient>
    </defs>
    <g id="Symbols" stroke="none" stroke-width="1" fill="none" fill-rule="evenodd">
        <g id="Logo/Logo" transform="translate(0.000000, -2.000000)">
            <g id="logo-easie">
                <g id="Group-3" transform="translate(0.000000, 2.000000)">
                    <mask id="mask-2" fill="white">
                        <use xlink:href="#path-1"></use>
                    </mask>
                    <g id="Clip-2"></g>
                    <path d="M7.97543811,0.824773414 L3.01489989,3.74772205 C1.14928095,4.84703323 0,6.87867069 0,9.07726888 L0,9.07726888 L0,14.9231662 C0,17.1217885 1.14928095,19.1534018 3.01489989,20.252713 L3.01489989,20.252713 L7.60944241,22.96 C7.86039397,19.9829124 8.66847363,14.4916979 11.262437,11.6170393 L11.262437,11.6170393 C11.262437,11.6170393 8.50687191,12.2521329 5.12270829,17.4114079 L5.12270829,17.4114079 C5.12270829,17.4114079 3.01272121,10.9929184 11.1436986,10.3430816 L11.1436986,10.3430816 C11.1436986,10.3430816 8.47587298,7.82230816 3.67748116,10.3849426 L3.67748116,10.3849426 C3.67748116,10.3849426 7.91685038,3.79115408 11.8283983,9.61604834 L11.8283983,9.61604834 C11.8283983,9.61604834 12.0731927,5.44681571 15.7011324,5.8876858 L15.7011324,5.8876858 C15.7011324,5.8876858 13.8721249,7.36459215 13.2990355,9.40045921 L13.2990355,9.40045921 C13.2990355,9.40045921 17.3891884,6.46566767 19.9067557,12.4047372 L19.9067557,12.4047372 C19.9067557,12.4047372 16.9047147,10.0764713 14.3371087,10.7099456 L14.3371087,10.7099456 L14.6076211,10.79229 L14.2503875,10.8537039 C14.2503875,10.8537039 14.5389688,11.0520363 14.5668891,11.1047251 L14.5668891,11.1047251 C14.5948095,11.1574381 15.8814661,11.42371 15.8814661,11.42371 L15.8814661,11.42371 C15.8814661,11.42371 18.5206846,12.8427069 18.6693089,16.529861 L18.6693089,16.529861 C18.3862217,16.010997 17.1624155,13.8850997 15.7193907,13.1153112 L15.7193907,13.1153112 C15.7193907,13.1153112 16.5962174,16.835577 13.2651712,20.4785015 L13.2651712,20.4785015 C13.2651712,20.4785015 15.1454015,14.6847372 12.3334273,11.7071662 L12.3334273,11.7071662 C12.3334273,11.7071662 9.31561464,15.1043625 9.76262433,23.8711541 L9.76262433,23.8711541 C11.1915587,24.174284 12.703733,23.942574 14.0052616,23.1756858 L14.0052616,23.1756858 L18.9657761,20.252713 C20.831395,19.1534018 21.980676,17.1217885 21.980676,14.9231662 L21.980676,14.9231662 L21.980676,9.07726888 C21.980676,6.87867069 20.831395,4.84703323 18.9657761,3.74772205 L18.9657761,3.74772205 L14.0052616,0.824773414 C13.0724284,0.275117825 12.031395,0.000290030211 10.990338,0.000290030211 L10.990338,0.000290030211 C9.94930463,0.000290030211 8.90824758,0.275117825 7.97543811,0.824773414 L7.97543811,0.824773414 Z M18.6754917,16.6276012 C18.6740324,16.5947069 18.6714595,16.5623927 18.6693089,16.529861 L18.6693089,16.529861 C18.7348235,16.6038912 18.7693089,16.6451964 18.7693089,16.6451964 L18.7693089,16.6451964 L18.6754917,16.6276012 Z" id="Fill-1" fill="url(#linearGradient-3)" mask="url(#mask-2)"></path>
                </g>
                <path d="M33.248,9.736 C36.896,9.736 39.176,12.76 39.176,16.048 C39.176,16.24 39.152,16.432 39.152,16.624 L28.28,16.624 C28.568,19.336 30.632,21.112 33.368,21.112 C35.336,21.112 36.824,20.2 37.52,18.928 L38.576,19.552 C37.592,21.184 35.72,22.264 33.344,22.264 C29.648,22.264 27.032,19.624 27.032,16 C27.032,12.472 29.576,9.736 33.248,9.736 Z M33.248,10.888 C30.512,10.888 28.52,12.784 28.28,15.448 L37.928,15.448 C37.664,12.52 35.6,10.888 33.248,10.888 Z M53.544,10 L54.768,10 L54.768,22 L53.544,22 L53.544,19.288 C52.536,21.088 50.688,22.264 48.384,22.264 C44.976,22.264 42.168,19.552 42.168,16 C42.168,12.448 44.976,9.736 48.384,9.736 C50.688,9.736 52.536,10.912 53.544,12.712 L53.544,10 Z M48.48,21.112 C51.336,21.112 53.544,18.856 53.544,16 C53.544,13.144 51.336,10.888 48.48,10.888 C45.624,10.888 43.392,13.144 43.392,16 C43.392,18.856 45.624,21.112 48.48,21.112 Z M60.28,13.144 C60.28,16.36 67.552,14.464 67.552,18.856 C67.552,20.824 65.824,22.264 63.256,22.264 C60.856,22.264 59.272,21.136 58.696,19.6 L59.728,19 C60.16,20.296 61.456,21.112 63.256,21.112 C64.936,21.112 66.352,20.368 66.352,18.856 C66.352,15.592 59.08,17.464 59.08,13.144 C59.08,11.248 60.712,9.736 63.16,9.736 C65.104,9.736 66.592,10.672 67.24,12.136 L66.232,12.712 C65.728,11.464 64.48,10.888 63.16,10.888 C61.6,10.888 60.28,11.704 60.28,13.144 Z M71.936,7.096 C71.408,7.096 70.976,6.664 70.976,6.136 C70.976,5.632 71.408,5.2 71.936,5.2 C72.464,5.2 72.896,5.632 72.896,6.136 C72.896,6.664 72.464,7.096 71.936,7.096 Z M71.336,22 L71.336,10 L72.536,10 L72.536,22 L71.336,22 Z M82.632,9.736 C86.28,9.736 88.56,12.76 88.56,16.048 C88.56,16.24 88.536,16.432 88.536,16.624 L77.664,16.624 C77.952,19.336 80.016,21.112 82.752,21.112 C84.72,21.112 86.208,20.2 86.904,18.928 L87.96,19.552 C86.976,21.184 85.104,22.264 82.728,22.264 C79.032,22.264 76.416,19.624 76.416,16 C76.416,12.472 78.96,9.736 82.632,9.736 Z M82.632,10.888 C79.896,10.888 77.904,12.784 77.664,15.448 L87.312,15.448 C87.048,12.52 84.984,10.888 82.632,10.888 Z" id="easie" fill="#343434" fill-rule="nonzero"></path>
            </g>
        </g>
    </g>
</svg>